<mxfile host="app.diagrams.net" modified="2023-10-02T05:57:47.117Z" agent="Mozilla/5.0 (X11; Ubuntu; Linux x86_64; rv:109.0) Gecko/20100101 Firefox/118.0" etag="WIXeHJSHLLFC55ubYo_e" version="22.0.0" type="github">
  <diagram id="C5RBs43oDa-KdzZeNtuy" name="Page-1">
    <mxGraphModel dx="1257" dy="649" grid="1" gridSize="10" guides="1" tooltips="1" connect="1" arrows="1" fold="1" page="1" pageScale="1" pageWidth="827" pageHeight="1169" math="0" shadow="0">
      <root>
        <mxCell id="WIyWlLk6GJQsqaUBKTNV-0" />
        <mxCell id="WIyWlLk6GJQsqaUBKTNV-1" parent="WIyWlLk6GJQsqaUBKTNV-0" />
        <mxCell id="WIyWlLk6GJQsqaUBKTNV-3" value="Mulai" style="rounded=1;whiteSpace=wrap;html=1;fontSize=12;glass=0;strokeWidth=1;shadow=0;" parent="WIyWlLk6GJQsqaUBKTNV-1" vertex="1">
          <mxGeometry x="80" y="40" width="120" height="40" as="geometry" />
        </mxCell>
        <mxCell id="WIyWlLk6GJQsqaUBKTNV-10" value="Pilihan = 1?" style="rhombus;whiteSpace=wrap;html=1;shadow=0;fontFamily=Helvetica;fontSize=12;align=center;strokeWidth=1;spacing=6;spacingTop=-4;" parent="WIyWlLk6GJQsqaUBKTNV-1" vertex="1">
          <mxGeometry x="90" y="220" width="100" height="80" as="geometry" />
        </mxCell>
        <mxCell id="Qqi29Gs-X395JuREenvk-0" value="Input pilihan" style="shape=parallelogram;perimeter=parallelogramPerimeter;whiteSpace=wrap;html=1;fixedSize=1;" vertex="1" parent="WIyWlLk6GJQsqaUBKTNV-1">
          <mxGeometry x="80" y="130" width="120" height="60" as="geometry" />
        </mxCell>
        <mxCell id="Qqi29Gs-X395JuREenvk-12" value="Pilihan = 2?" style="rhombus;whiteSpace=wrap;html=1;shadow=0;fontFamily=Helvetica;fontSize=12;align=center;strokeWidth=1;spacing=6;spacingTop=-4;" vertex="1" parent="WIyWlLk6GJQsqaUBKTNV-1">
          <mxGeometry x="90" y="330" width="100" height="80" as="geometry" />
        </mxCell>
        <mxCell id="Qqi29Gs-X395JuREenvk-18" value="Pilihan = 3?" style="rhombus;whiteSpace=wrap;html=1;shadow=0;fontFamily=Helvetica;fontSize=12;align=center;strokeWidth=1;spacing=6;spacingTop=-4;" vertex="1" parent="WIyWlLk6GJQsqaUBKTNV-1">
          <mxGeometry x="90" y="440" width="100" height="80" as="geometry" />
        </mxCell>
        <mxCell id="Qqi29Gs-X395JuREenvk-23" value="" style="edgeStyle=orthogonalEdgeStyle;rounded=0;orthogonalLoop=1;jettySize=auto;html=1;exitX=0;exitY=0.5;exitDx=0;exitDy=0;entryX=0;entryY=0.5;entryDx=0;entryDy=0;" edge="1" parent="WIyWlLk6GJQsqaUBKTNV-1" source="Qqi29Gs-X395JuREenvk-21" target="Qqi29Gs-X395JuREenvk-0">
          <mxGeometry relative="1" as="geometry">
            <mxPoint x="40" y="160" as="targetPoint" />
            <Array as="points">
              <mxPoint x="40" y="590" />
              <mxPoint x="40" y="160" />
            </Array>
          </mxGeometry>
        </mxCell>
        <mxCell id="Qqi29Gs-X395JuREenvk-21" value="Default" style="rhombus;whiteSpace=wrap;html=1;shadow=0;fontFamily=Helvetica;fontSize=12;align=center;strokeWidth=1;spacing=6;spacingTop=-4;" vertex="1" parent="WIyWlLk6GJQsqaUBKTNV-1">
          <mxGeometry x="90" y="550" width="100" height="80" as="geometry" />
        </mxCell>
        <mxCell id="Qqi29Gs-X395JuREenvk-29" value="" style="edgeStyle=orthogonalEdgeStyle;rounded=0;orthogonalLoop=1;jettySize=auto;html=1;" edge="1" parent="WIyWlLk6GJQsqaUBKTNV-1" source="Qqi29Gs-X395JuREenvk-25" target="Qqi29Gs-X395JuREenvk-28">
          <mxGeometry relative="1" as="geometry" />
        </mxCell>
        <mxCell id="Qqi29Gs-X395JuREenvk-25" value="Input sisi C" style="shape=parallelogram;perimeter=parallelogramPerimeter;whiteSpace=wrap;html=1;fixedSize=1;" vertex="1" parent="WIyWlLk6GJQsqaUBKTNV-1">
          <mxGeometry x="209.99" y="235" width="90" height="50" as="geometry" />
        </mxCell>
        <mxCell id="Qqi29Gs-X395JuREenvk-31" value="" style="edgeStyle=orthogonalEdgeStyle;rounded=0;orthogonalLoop=1;jettySize=auto;html=1;" edge="1" parent="WIyWlLk6GJQsqaUBKTNV-1" source="Qqi29Gs-X395JuREenvk-28" target="Qqi29Gs-X395JuREenvk-30">
          <mxGeometry relative="1" as="geometry" />
        </mxCell>
        <mxCell id="Qqi29Gs-X395JuREenvk-28" value="Input sisi B" style="shape=parallelogram;perimeter=parallelogramPerimeter;whiteSpace=wrap;html=1;fixedSize=1;" vertex="1" parent="WIyWlLk6GJQsqaUBKTNV-1">
          <mxGeometry x="309.99" y="235" width="90" height="50" as="geometry" />
        </mxCell>
        <mxCell id="Qqi29Gs-X395JuREenvk-33" value="" style="edgeStyle=orthogonalEdgeStyle;rounded=0;orthogonalLoop=1;jettySize=auto;html=1;" edge="1" parent="WIyWlLk6GJQsqaUBKTNV-1" source="Qqi29Gs-X395JuREenvk-30">
          <mxGeometry relative="1" as="geometry">
            <mxPoint x="549.9993023255813" y="259.9767441860465" as="targetPoint" />
          </mxGeometry>
        </mxCell>
        <mxCell id="Qqi29Gs-X395JuREenvk-30" value="Kalkulasi sisi A" style="whiteSpace=wrap;html=1;" vertex="1" parent="WIyWlLk6GJQsqaUBKTNV-1">
          <mxGeometry x="419.99" y="235" width="100" height="50" as="geometry" />
        </mxCell>
        <mxCell id="Qqi29Gs-X395JuREenvk-66" value="" style="edgeStyle=orthogonalEdgeStyle;rounded=0;orthogonalLoop=1;jettySize=auto;html=1;" edge="1" parent="WIyWlLk6GJQsqaUBKTNV-1" source="Qqi29Gs-X395JuREenvk-32" target="Qqi29Gs-X395JuREenvk-65">
          <mxGeometry relative="1" as="geometry" />
        </mxCell>
        <mxCell id="Qqi29Gs-X395JuREenvk-32" value="Output sisi A" style="shape=parallelogram;perimeter=parallelogramPerimeter;whiteSpace=wrap;html=1;fixedSize=1;" vertex="1" parent="WIyWlLk6GJQsqaUBKTNV-1">
          <mxGeometry x="540" y="235" width="110" height="50" as="geometry" />
        </mxCell>
        <mxCell id="Qqi29Gs-X395JuREenvk-35" value="" style="edgeStyle=orthogonalEdgeStyle;rounded=0;orthogonalLoop=1;jettySize=auto;html=1;" edge="1" parent="WIyWlLk6GJQsqaUBKTNV-1" source="Qqi29Gs-X395JuREenvk-36" target="Qqi29Gs-X395JuREenvk-38">
          <mxGeometry relative="1" as="geometry" />
        </mxCell>
        <mxCell id="Qqi29Gs-X395JuREenvk-36" value="Input sisi C" style="shape=parallelogram;perimeter=parallelogramPerimeter;whiteSpace=wrap;html=1;fixedSize=1;" vertex="1" parent="WIyWlLk6GJQsqaUBKTNV-1">
          <mxGeometry x="209.99" y="345" width="90" height="50" as="geometry" />
        </mxCell>
        <mxCell id="Qqi29Gs-X395JuREenvk-37" value="" style="edgeStyle=orthogonalEdgeStyle;rounded=0;orthogonalLoop=1;jettySize=auto;html=1;" edge="1" parent="WIyWlLk6GJQsqaUBKTNV-1" source="Qqi29Gs-X395JuREenvk-38" target="Qqi29Gs-X395JuREenvk-40">
          <mxGeometry relative="1" as="geometry" />
        </mxCell>
        <mxCell id="Qqi29Gs-X395JuREenvk-38" value="Input sisi A" style="shape=parallelogram;perimeter=parallelogramPerimeter;whiteSpace=wrap;html=1;fixedSize=1;" vertex="1" parent="WIyWlLk6GJQsqaUBKTNV-1">
          <mxGeometry x="309.99" y="345" width="90" height="50" as="geometry" />
        </mxCell>
        <mxCell id="Qqi29Gs-X395JuREenvk-39" value="" style="edgeStyle=orthogonalEdgeStyle;rounded=0;orthogonalLoop=1;jettySize=auto;html=1;" edge="1" parent="WIyWlLk6GJQsqaUBKTNV-1" source="Qqi29Gs-X395JuREenvk-40">
          <mxGeometry relative="1" as="geometry">
            <mxPoint x="549.9993023255813" y="369.9767441860465" as="targetPoint" />
          </mxGeometry>
        </mxCell>
        <mxCell id="Qqi29Gs-X395JuREenvk-40" value="Kalkulasi sisi B" style="whiteSpace=wrap;html=1;" vertex="1" parent="WIyWlLk6GJQsqaUBKTNV-1">
          <mxGeometry x="419.99" y="345" width="100" height="50" as="geometry" />
        </mxCell>
        <mxCell id="Qqi29Gs-X395JuREenvk-68" value="" style="edgeStyle=orthogonalEdgeStyle;rounded=0;orthogonalLoop=1;jettySize=auto;html=1;" edge="1" parent="WIyWlLk6GJQsqaUBKTNV-1" source="Qqi29Gs-X395JuREenvk-41" target="Qqi29Gs-X395JuREenvk-67">
          <mxGeometry relative="1" as="geometry" />
        </mxCell>
        <mxCell id="Qqi29Gs-X395JuREenvk-41" value="Output sisi B" style="shape=parallelogram;perimeter=parallelogramPerimeter;whiteSpace=wrap;html=1;fixedSize=1;" vertex="1" parent="WIyWlLk6GJQsqaUBKTNV-1">
          <mxGeometry x="540" y="345" width="110" height="50" as="geometry" />
        </mxCell>
        <mxCell id="Qqi29Gs-X395JuREenvk-43" value="" style="edgeStyle=orthogonalEdgeStyle;rounded=0;orthogonalLoop=1;jettySize=auto;html=1;" edge="1" parent="WIyWlLk6GJQsqaUBKTNV-1" source="Qqi29Gs-X395JuREenvk-44" target="Qqi29Gs-X395JuREenvk-46">
          <mxGeometry relative="1" as="geometry" />
        </mxCell>
        <mxCell id="Qqi29Gs-X395JuREenvk-44" value="Input sisi A" style="shape=parallelogram;perimeter=parallelogramPerimeter;whiteSpace=wrap;html=1;fixedSize=1;" vertex="1" parent="WIyWlLk6GJQsqaUBKTNV-1">
          <mxGeometry x="209.99" y="455" width="90" height="50" as="geometry" />
        </mxCell>
        <mxCell id="Qqi29Gs-X395JuREenvk-45" value="" style="edgeStyle=orthogonalEdgeStyle;rounded=0;orthogonalLoop=1;jettySize=auto;html=1;" edge="1" parent="WIyWlLk6GJQsqaUBKTNV-1" source="Qqi29Gs-X395JuREenvk-46" target="Qqi29Gs-X395JuREenvk-48">
          <mxGeometry relative="1" as="geometry" />
        </mxCell>
        <mxCell id="Qqi29Gs-X395JuREenvk-46" value="Input sisi B" style="shape=parallelogram;perimeter=parallelogramPerimeter;whiteSpace=wrap;html=1;fixedSize=1;" vertex="1" parent="WIyWlLk6GJQsqaUBKTNV-1">
          <mxGeometry x="309.99" y="455" width="90" height="50" as="geometry" />
        </mxCell>
        <mxCell id="Qqi29Gs-X395JuREenvk-47" value="" style="edgeStyle=orthogonalEdgeStyle;rounded=0;orthogonalLoop=1;jettySize=auto;html=1;" edge="1" parent="WIyWlLk6GJQsqaUBKTNV-1" source="Qqi29Gs-X395JuREenvk-48">
          <mxGeometry relative="1" as="geometry">
            <mxPoint x="549.9993023255813" y="479.9767441860465" as="targetPoint" />
          </mxGeometry>
        </mxCell>
        <mxCell id="Qqi29Gs-X395JuREenvk-48" value="Kalkulasi sisi C" style="whiteSpace=wrap;html=1;" vertex="1" parent="WIyWlLk6GJQsqaUBKTNV-1">
          <mxGeometry x="419.99" y="455" width="100" height="50" as="geometry" />
        </mxCell>
        <mxCell id="Qqi29Gs-X395JuREenvk-70" value="" style="edgeStyle=orthogonalEdgeStyle;rounded=0;orthogonalLoop=1;jettySize=auto;html=1;" edge="1" parent="WIyWlLk6GJQsqaUBKTNV-1" source="Qqi29Gs-X395JuREenvk-49" target="Qqi29Gs-X395JuREenvk-69">
          <mxGeometry relative="1" as="geometry" />
        </mxCell>
        <mxCell id="Qqi29Gs-X395JuREenvk-49" value="Output sisi C" style="shape=parallelogram;perimeter=parallelogramPerimeter;whiteSpace=wrap;html=1;fixedSize=1;" vertex="1" parent="WIyWlLk6GJQsqaUBKTNV-1">
          <mxGeometry x="540" y="455" width="110" height="50" as="geometry" />
        </mxCell>
        <mxCell id="Qqi29Gs-X395JuREenvk-51" value="" style="endArrow=classic;html=1;rounded=0;exitX=0.5;exitY=1;exitDx=0;exitDy=0;entryX=0.5;entryY=0;entryDx=0;entryDy=0;" edge="1" parent="WIyWlLk6GJQsqaUBKTNV-1" source="WIyWlLk6GJQsqaUBKTNV-3" target="Qqi29Gs-X395JuREenvk-0">
          <mxGeometry width="50" height="50" relative="1" as="geometry">
            <mxPoint x="120" y="150" as="sourcePoint" />
            <mxPoint x="170" y="100" as="targetPoint" />
          </mxGeometry>
        </mxCell>
        <mxCell id="Qqi29Gs-X395JuREenvk-52" value="" style="endArrow=classic;html=1;rounded=0;exitX=0.5;exitY=1;exitDx=0;exitDy=0;entryX=0.5;entryY=0;entryDx=0;entryDy=0;" edge="1" parent="WIyWlLk6GJQsqaUBKTNV-1" source="Qqi29Gs-X395JuREenvk-0" target="WIyWlLk6GJQsqaUBKTNV-10">
          <mxGeometry width="50" height="50" relative="1" as="geometry">
            <mxPoint x="120" y="250" as="sourcePoint" />
            <mxPoint x="170" y="200" as="targetPoint" />
          </mxGeometry>
        </mxCell>
        <mxCell id="Qqi29Gs-X395JuREenvk-53" value="" style="endArrow=classic;html=1;rounded=0;exitX=0.5;exitY=1;exitDx=0;exitDy=0;" edge="1" parent="WIyWlLk6GJQsqaUBKTNV-1" source="WIyWlLk6GJQsqaUBKTNV-10" target="Qqi29Gs-X395JuREenvk-12">
          <mxGeometry width="50" height="50" relative="1" as="geometry">
            <mxPoint x="139.72" y="300" as="sourcePoint" />
            <mxPoint x="139.72" y="330" as="targetPoint" />
          </mxGeometry>
        </mxCell>
        <mxCell id="Qqi29Gs-X395JuREenvk-60" value="Tidak" style="edgeLabel;html=1;align=center;verticalAlign=middle;resizable=0;points=[];" vertex="1" connectable="0" parent="Qqi29Gs-X395JuREenvk-53">
          <mxGeometry x="0.0243" relative="1" as="geometry">
            <mxPoint x="20" y="-5" as="offset" />
          </mxGeometry>
        </mxCell>
        <mxCell id="Qqi29Gs-X395JuREenvk-54" value="" style="endArrow=classic;html=1;rounded=0;exitX=0.5;exitY=1;exitDx=0;exitDy=0;entryX=0.5;entryY=0;entryDx=0;entryDy=0;" edge="1" parent="WIyWlLk6GJQsqaUBKTNV-1" source="Qqi29Gs-X395JuREenvk-12" target="Qqi29Gs-X395JuREenvk-18">
          <mxGeometry width="50" height="50" relative="1" as="geometry">
            <mxPoint x="139.72" y="410" as="sourcePoint" />
            <mxPoint x="139.72" y="440" as="targetPoint" />
          </mxGeometry>
        </mxCell>
        <mxCell id="Qqi29Gs-X395JuREenvk-55" value="" style="endArrow=classic;html=1;rounded=0;exitX=0.5;exitY=1;exitDx=0;exitDy=0;entryX=0.5;entryY=0;entryDx=0;entryDy=0;" edge="1" parent="WIyWlLk6GJQsqaUBKTNV-1" source="Qqi29Gs-X395JuREenvk-18" target="Qqi29Gs-X395JuREenvk-21">
          <mxGeometry width="50" height="50" relative="1" as="geometry">
            <mxPoint x="150" y="420" as="sourcePoint" />
            <mxPoint x="150" y="450" as="targetPoint" />
          </mxGeometry>
        </mxCell>
        <mxCell id="Qqi29Gs-X395JuREenvk-56" value="" style="endArrow=classic;html=1;rounded=0;entryX=0;entryY=0.5;entryDx=0;entryDy=0;" edge="1" parent="WIyWlLk6GJQsqaUBKTNV-1" source="Qqi29Gs-X395JuREenvk-12" target="Qqi29Gs-X395JuREenvk-36">
          <mxGeometry width="50" height="50" relative="1" as="geometry">
            <mxPoint x="120" y="370" as="sourcePoint" />
            <mxPoint x="170" y="320" as="targetPoint" />
          </mxGeometry>
        </mxCell>
        <mxCell id="Qqi29Gs-X395JuREenvk-57" value="" style="endArrow=classic;html=1;rounded=0;entryX=0;entryY=0.5;entryDx=0;entryDy=0;exitX=1;exitY=0.5;exitDx=0;exitDy=0;" edge="1" parent="WIyWlLk6GJQsqaUBKTNV-1" source="WIyWlLk6GJQsqaUBKTNV-10" target="Qqi29Gs-X395JuREenvk-25">
          <mxGeometry width="50" height="50" relative="1" as="geometry">
            <mxPoint x="200" y="380" as="sourcePoint" />
            <mxPoint x="230" y="380" as="targetPoint" />
          </mxGeometry>
        </mxCell>
        <mxCell id="Qqi29Gs-X395JuREenvk-59" value="Ya" style="edgeLabel;html=1;align=center;verticalAlign=middle;resizable=0;points=[];" vertex="1" connectable="0" parent="Qqi29Gs-X395JuREenvk-57">
          <mxGeometry x="-0.1553" y="-1" relative="1" as="geometry">
            <mxPoint x="-3" y="-11" as="offset" />
          </mxGeometry>
        </mxCell>
        <mxCell id="Qqi29Gs-X395JuREenvk-58" value="" style="endArrow=classic;html=1;rounded=0;entryX=0;entryY=0.5;entryDx=0;entryDy=0;exitX=1;exitY=0.5;exitDx=0;exitDy=0;" edge="1" parent="WIyWlLk6GJQsqaUBKTNV-1" source="Qqi29Gs-X395JuREenvk-18" target="Qqi29Gs-X395JuREenvk-44">
          <mxGeometry width="50" height="50" relative="1" as="geometry">
            <mxPoint x="210" y="390" as="sourcePoint" />
            <mxPoint x="240" y="390" as="targetPoint" />
          </mxGeometry>
        </mxCell>
        <mxCell id="Qqi29Gs-X395JuREenvk-61" value="Tidak" style="edgeLabel;html=1;align=center;verticalAlign=middle;resizable=0;points=[];" vertex="1" connectable="0" parent="WIyWlLk6GJQsqaUBKTNV-1">
          <mxGeometry x="160.44" y="420.34883720930236" as="geometry" />
        </mxCell>
        <mxCell id="Qqi29Gs-X395JuREenvk-62" value="Ya" style="edgeLabel;html=1;align=center;verticalAlign=middle;resizable=0;points=[];" vertex="1" connectable="0" parent="WIyWlLk6GJQsqaUBKTNV-1">
          <mxGeometry x="199.9981395348837" y="360.00000000000006" as="geometry" />
        </mxCell>
        <mxCell id="Qqi29Gs-X395JuREenvk-63" value="Tidak" style="edgeLabel;html=1;align=center;verticalAlign=middle;resizable=0;points=[];" vertex="1" connectable="0" parent="WIyWlLk6GJQsqaUBKTNV-1">
          <mxGeometry x="160.44" y="530.3488372093024" as="geometry" />
        </mxCell>
        <mxCell id="Qqi29Gs-X395JuREenvk-64" value="Ya" style="edgeLabel;html=1;align=center;verticalAlign=middle;resizable=0;points=[];" vertex="1" connectable="0" parent="WIyWlLk6GJQsqaUBKTNV-1">
          <mxGeometry x="199.9981395348837" y="470.00000000000006" as="geometry" />
        </mxCell>
        <mxCell id="Qqi29Gs-X395JuREenvk-65" value="Break" style="whiteSpace=wrap;html=1;" vertex="1" parent="WIyWlLk6GJQsqaUBKTNV-1">
          <mxGeometry x="670" y="235" width="70" height="50" as="geometry" />
        </mxCell>
        <mxCell id="Qqi29Gs-X395JuREenvk-67" value="Break" style="whiteSpace=wrap;html=1;" vertex="1" parent="WIyWlLk6GJQsqaUBKTNV-1">
          <mxGeometry x="670" y="345" width="70" height="50" as="geometry" />
        </mxCell>
        <mxCell id="Qqi29Gs-X395JuREenvk-69" value="Break" style="whiteSpace=wrap;html=1;" vertex="1" parent="WIyWlLk6GJQsqaUBKTNV-1">
          <mxGeometry x="670" y="455" width="70" height="50" as="geometry" />
        </mxCell>
        <mxCell id="Qqi29Gs-X395JuREenvk-71" value="Hitung ulang?" style="rhombus;whiteSpace=wrap;html=1;" vertex="1" parent="WIyWlLk6GJQsqaUBKTNV-1">
          <mxGeometry x="827" y="325" width="90" height="90" as="geometry" />
        </mxCell>
        <mxCell id="Qqi29Gs-X395JuREenvk-73" value="" style="endArrow=classic;html=1;rounded=0;exitX=1;exitY=0.5;exitDx=0;exitDy=0;entryX=0;entryY=0.5;entryDx=0;entryDy=0;" edge="1" parent="WIyWlLk6GJQsqaUBKTNV-1" source="Qqi29Gs-X395JuREenvk-67" target="Qqi29Gs-X395JuREenvk-71">
          <mxGeometry width="50" height="50" relative="1" as="geometry">
            <mxPoint x="780" y="390" as="sourcePoint" />
            <mxPoint x="830" y="340" as="targetPoint" />
          </mxGeometry>
        </mxCell>
        <mxCell id="Qqi29Gs-X395JuREenvk-74" value="" style="endArrow=none;html=1;rounded=0;exitX=1;exitY=0.5;exitDx=0;exitDy=0;" edge="1" parent="WIyWlLk6GJQsqaUBKTNV-1" source="Qqi29Gs-X395JuREenvk-65">
          <mxGeometry width="50" height="50" relative="1" as="geometry">
            <mxPoint x="780" y="390" as="sourcePoint" />
            <mxPoint x="800" y="370" as="targetPoint" />
            <Array as="points">
              <mxPoint x="800" y="260" />
            </Array>
          </mxGeometry>
        </mxCell>
        <mxCell id="Qqi29Gs-X395JuREenvk-75" value="" style="endArrow=none;html=1;rounded=0;exitX=1;exitY=0.5;exitDx=0;exitDy=0;" edge="1" parent="WIyWlLk6GJQsqaUBKTNV-1" source="Qqi29Gs-X395JuREenvk-69">
          <mxGeometry width="50" height="50" relative="1" as="geometry">
            <mxPoint x="780" y="390" as="sourcePoint" />
            <mxPoint x="800" y="370" as="targetPoint" />
            <Array as="points">
              <mxPoint x="800" y="480" />
            </Array>
          </mxGeometry>
        </mxCell>
        <mxCell id="Qqi29Gs-X395JuREenvk-76" value="" style="endArrow=classic;html=1;rounded=0;exitX=0.5;exitY=0;exitDx=0;exitDy=0;entryX=1;entryY=0.5;entryDx=0;entryDy=0;" edge="1" parent="WIyWlLk6GJQsqaUBKTNV-1" source="Qqi29Gs-X395JuREenvk-71" target="Qqi29Gs-X395JuREenvk-0">
          <mxGeometry width="50" height="50" relative="1" as="geometry">
            <mxPoint x="800" y="320" as="sourcePoint" />
            <mxPoint x="460" y="130" as="targetPoint" />
            <Array as="points">
              <mxPoint x="870" y="160" />
            </Array>
          </mxGeometry>
        </mxCell>
        <mxCell id="Qqi29Gs-X395JuREenvk-77" value="Ya" style="edgeLabel;html=1;align=center;verticalAlign=middle;resizable=0;points=[];" vertex="1" connectable="0" parent="Qqi29Gs-X395JuREenvk-76">
          <mxGeometry x="-0.9188" relative="1" as="geometry">
            <mxPoint x="18" y="9" as="offset" />
          </mxGeometry>
        </mxCell>
        <mxCell id="Qqi29Gs-X395JuREenvk-78" value="Selesai" style="rounded=1;whiteSpace=wrap;html=1;" vertex="1" parent="WIyWlLk6GJQsqaUBKTNV-1">
          <mxGeometry x="812" y="550" width="120" height="60" as="geometry" />
        </mxCell>
        <mxCell id="Qqi29Gs-X395JuREenvk-79" value="" style="endArrow=classic;html=1;rounded=0;entryX=0.5;entryY=0;entryDx=0;entryDy=0;exitX=0.5;exitY=1;exitDx=0;exitDy=0;" edge="1" parent="WIyWlLk6GJQsqaUBKTNV-1" source="Qqi29Gs-X395JuREenvk-71" target="Qqi29Gs-X395JuREenvk-78">
          <mxGeometry width="50" height="50" relative="1" as="geometry">
            <mxPoint x="550" y="510" as="sourcePoint" />
            <mxPoint x="600" y="460" as="targetPoint" />
          </mxGeometry>
        </mxCell>
        <mxCell id="Qqi29Gs-X395JuREenvk-80" value="Tidak" style="edgeLabel;html=1;align=center;verticalAlign=middle;resizable=0;points=[];" vertex="1" connectable="0" parent="Qqi29Gs-X395JuREenvk-79">
          <mxGeometry x="-0.7605" y="-2" relative="1" as="geometry">
            <mxPoint x="20" y="9" as="offset" />
          </mxGeometry>
        </mxCell>
      </root>
    </mxGraphModel>
  </diagram>
</mxfile>
